RalewayThin-Regular.ufo
<glyph name="exclam" format="1">
  <advance width="134"/>
  <unicode hex="0021"/>
  <outline>
    <contour>
      <point x="86" y="200" type="line"/>
      <point x="86" y="717" type="line"/>
      <point x="66" y="717" type="line"/>
      <point x="66" y="200" type="line"/>
    </contour>
    <contour>
      <point x="86" y="0" type="line"/>
      <point x="86" y="84" type="line"/>
      <point x="66" y="84" type="line"/>
      <point x="66" y="0" type="line"/>
    </contour>
  </outline>
</glyph>
<glyph name="zero" format="1">
  <advance width="576"/>
  <unicode hex="0030"/>
  <outline>
    <contour>
      <point x="427" y="-7"/>
      <point x="525" y="126"/>
      <point x="525" y="288" type="curve" smooth="yes"/>
      <point x="525" y="437"/>
      <point x="437" y="597"/>
      <point x="288" y="597" type="curve" smooth="yes"/>
      <point x="152" y="597"/>
      <point x="51" y="453"/>
      <point x="51" y="288" type="curve" smooth="yes"/>
      <point x="51" y="133"/>
      <point x="142" y="-7"/>
      <point x="288" y="-10" type="curve"/>
    </contour>
    <contour>
      <point x="71" y="426"/>
      <point x="151" y="577"/>
      <point x="288" y="577" type="curve" smooth="yes"/>
      <point x="416" y="577"/>
      <point x="505" y="437"/>
      <point x="505" y="288" type="curve" smooth="yes"/>
      <point x="505" y="150"/>
      <point x="425" y="10"/>
      <point x="288" y="10" type="curve" smooth="yes"/>
      <point x="156" y="10"/>
      <point x="76" y="139"/>
      <point x="71" y="288" type="curve"/>
    </contour>
  </outline>
</glyph>
<glyph name="seven" format="1">
  <advance width="470"/>
  <unicode hex="0037"/>
  <outline>
    <contour>
      <point x="76" y="-127" type="line"/>
      <point x="99" y="-127" type="line"/>
      <point x="463" y="583" type="line"/>
      <point x="3" y="583" type="line"/>
      <point x="3" y="563" type="line"/>
      <point x="430" y="563" type="line"/>
    </contour>
  </outline>
</glyph>
<glyph name="eight" format="1">
  <advance width="575"/>
  <unicode hex="0038"/>
  <outline>
    <contour>
      <point x="525" y="283"/>
      <point x="451" y="355"/>
      <point x="360" y="381" type="curve"/>
      <point x="428" y="403"/>
      <point x="499" y="458"/>
      <point x="499" y="540" type="curve" smooth="yes"/>
      <point x="499" y="646"/>
      <point x="386" y="710"/>
      <point x="287" y="710" type="curve" smooth="yes"/>
      <point x="194" y="710"/>
      <point x="76" y="650"/>
      <point x="76" y="540" type="curve" smooth="yes"/>
      <point x="76" y="463"/>
      <point x="140" y="407"/>
      <point x="214" y="381" type="curve"/>
      <point x="133" y="359"/>
      <point x="50" y="289"/>
      <point x="50" y="190" type="curve" smooth="yes"/>
      <point x="50" y="70"/>
      <point x="171" y="-10"/>
      <point x="287" y="-10" type="curve" smooth="yes"/>
      <point x="303" y="-10" type="line"/>
      <point x="410" y="-3"/>
      <point x="516" y="67"/>
      <point x="525" y="190" type="curve"/>
    </contour>
    <contour>
      <point x="505" y="80"/>
      <point x="392" y="10"/>
      <point x="287" y="10" type="curve" smooth="yes"/>
      <point x="189" y="10"/>
      <point x="70" y="75"/>
      <point x="70" y="190" type="curve" smooth="yes"/>
      <point x="70" y="299"/>
      <point x="182" y="371"/>
      <point x="287" y="371" type="curve" smooth="yes"/>
      <point x="386" y="371"/>
      <point x="505" y="305"/>
      <point x="505" y="190" type="curve" smooth="yes"/>
    </contour>
    <contour>
      <point x="96" y="634"/>
      <point x="199" y="690"/>
      <point x="287" y="690" type="curve" smooth="yes"/>
      <point x="369" y="690"/>
      <point x="479" y="638"/>
      <point x="479" y="540" type="curve" smooth="yes"/>
      <point x="479" y="446"/>
      <point x="374" y="391"/>
      <point x="287" y="391" type="curve" smooth="yes"/>
      <point x="201" y="391"/>
      <point x="102" y="442"/>
      <point x="96" y="540" type="curve"/>
    </contour>
  </outline>
</glyph>
<glyph name="nine" format="1">
  <advance width="595"/>
  <unicode hex="0039"/>
  <outline>
    <contour>
      <point x="49" y="200"/>
      <point x="153" y="86"/>
      <point x="291" y="86" type="curve" smooth="yes"/>
      <point x="391" y="86"/>
      <point x="482" y="148"/>
      <point x="520" y="243" type="curve"/>
      <point x="520" y="115"/>
      <point x="481" y="-134"/>
      <point x="298" y="-134" type="curve" smooth="yes"/>
      <point x="291" y="-134" type="line" smooth="yes"/>
      <point x="208" y="-134"/>
      <point x="132" y="-84"/>
      <point x="104" y="1" type="curve"/>
      <point x="85" y="-6" type="line"/>
      <point x="113" y="-93"/>
      <point x="194" y="-154"/>
      <point x="291" y="-154" type="curve" smooth="yes"/>
      <point x="298" y="-154" type="line" smooth="yes"/>
      <point x="490" y="-154"/>
      <point x="540" y="88"/>
      <point x="540" y="244" type="curve" smooth="yes"/>
      <point x="540" y="303"/>
      <point x="535" y="345"/>
      <point x="535" y="348" type="curve"/>
      <point x="525" y="466"/>
      <point x="422" y="571"/>
      <point x="291" y="571" type="curve" smooth="yes"/>
      <point x="275" y="571" type="line"/>
      <point x="150" y="563"/>
      <point x="54" y="463"/>
      <point x="46" y="329" type="curve"/>
    </contour>
    <contour>
      <point x="408" y="551"/>
      <point x="516" y="454"/>
      <point x="516" y="329" type="curve" smooth="yes"/>
      <point x="516" y="210"/>
      <point x="416" y="106"/>
      <point x="291" y="106" type="curve" smooth="yes"/>
      <point x="173" y="106"/>
      <point x="66" y="203"/>
      <point x="66" y="329" type="curve" smooth="yes"/>
      <point x="66" y="451"/>
      <point x="167" y="546"/>
      <point x="291" y="551" type="curve"/>
    </contour>
  </outline>
</glyph>
<glyph name="B" format="1">
  <advance width="634"/>
  <unicode hex="0042"/>
  <outline>
    <contour>
      <point x="580" y="265"/>
      <point x="529" y="340"/>
      <point x="448" y="364" type="curve"/>
      <point x="510" y="392"/>
      <point x="550" y="457"/>
      <point x="550" y="529" type="curve" smooth="yes"/>
      <point x="550" y="618"/>
      <point x="488" y="710"/>
      <point x="388" y="710" type="curve" smooth="yes"/>
      <point x="74" y="710" type="line"/>
      <point x="74" y="0" type="line"/>
      <point x="403" y="0" type="line" smooth="yes"/>
      <point x="500" y="0"/>
      <point x="576" y="86"/>
      <point x="580" y="184" type="curve"/>
    </contour>
    <contour>
      <point x="560" y="102"/>
      <point x="491" y="20"/>
      <point x="403" y="20" type="curve" smooth="yes"/>
      <point x="94" y="20" type="line"/>
      <point x="94" y="348" type="line"/>
      <point x="410" y="348" type="line" smooth="yes"/>
      <point x="496" y="348"/>
      <point x="560" y="269"/>
      <point x="560" y="184" type="curve" smooth="yes"/>
    </contour>
    <contour>
      <point x="388" y="690" type="line" smooth="yes"/>
      <point x="472" y="688"/>
      <point x="530" y="614"/>
      <point x="530" y="529" type="curve" smooth="yes"/>
      <point x="530" y="450"/>
      <point x="469" y="368"/>
      <point x="382" y="368" type="curve" smooth="yes"/>
      <point x="94" y="368" type="line"/>
      <point x="94" y="690" type="line"/>
    </contour>
  </outline>
</glyph>
<glyph name="C" format="1">
  <advance width="701"/>
  <unicode hex="0043"/>
  <outline>
    <contour>
      <point x="48" y="179"/>
      <point x="186" y="-6"/>
      <point x="383" y="-6" type="curve" smooth="yes"/>
      <point x="483" y="-6"/>
      <point x="621" y="55"/>
      <point x="659" y="159" type="curve"/>
      <point x="640" y="164" type="line"/>
      <point x="608" y="79"/>
      <point x="470" y="14"/>
      <point x="383" y="14" type="curve" smooth="yes"/>
      <point x="208" y="14"/>
      <point x="68" y="176"/>
      <point x="68" y="354" type="curve" smooth="yes"/>
      <point x="68" y="521"/>
      <point x="184" y="694"/>
      <point x="371" y="694" type="curve" smooth="yes"/>
      <point x="481" y="694"/>
      <point x="569" y="653"/>
      <point x="623" y="553" type="curve"/>
      <point x="642" y="559" type="line"/>
      <point x="597" y="649"/>
      <point x="518" y="714"/>
      <point x="371" y="714" type="curve" smooth="yes"/>
      <point x="182" y="714"/>
      <point x="48" y="539"/>
      <point x="48" y="354" type="curve" smooth="yes"/>
    </contour>
  </outline>
</glyph>
<glyph name="H" format="1">
  <advance width="684"/>
  <unicode hex="0048"/>
  <outline>
    <contour>
      <point x="589" y="710" type="line"/>
      <point x="589" y="373" type="line"/>
      <point x="96" y="373" type="line"/>
      <point x="96" y="710" type="line"/>
      <point x="76" y="710" type="line"/>
      <point x="76" y="0" type="line"/>
      <point x="96" y="0" type="line"/>
      <point x="96" y="353" type="line"/>
      <point x="589" y="353" type="line"/>
      <point x="589" y="0" type="line"/>
      <point x="609" y="0" type="line"/>
      <point x="609" y="710" type="line"/>
    </contour>
  </outline>
</glyph>
<glyph name="T" format="1">
  <advance width="572"/>
  <unicode hex="0054"/>
  <outline>
    <contour>
      <point x="568" y="710" type="line"/>
      <point x="4" y="710" type="line"/>
      <point x="4" y="690" type="line"/>
      <point x="276" y="690" type="line"/>
      <point x="276" y="0" type="line"/>
      <point x="296" y="0" type="line"/>
      <point x="296" y="690" type="line"/>
      <point x="568" y="690" type="line"/>
    </contour>
  </outline>
</glyph>
<glyph name="W" format="1">
  <advance width="1086"/>
  <unicode hex="0057"/>
  <outline>
    <contour>
      <point x="532" y="414" type="line"/>
      <point x="363" y="25" type="line"/>
      <point x="65" y="710" type="line"/>
      <point x="43" y="710" type="line"/>
      <point x="352" y="0" type="line"/>
      <point x="374" y="0" type="line"/>
      <point x="543" y="389" type="line"/>
      <point x="712" y="0" type="line"/>
      <point x="734" y="0" type="line"/>
      <point x="1043" y="710" type="line"/>
      <point x="1021" y="710" type="line"/>
      <point x="723" y="25" type="line"/>
      <point x="553" y="414" type="line"/>
      <point x="680" y="704" type="line"/>
      <point x="658" y="704" type="line"/>
      <point x="542" y="438" type="line"/>
      <point x="427" y="704" type="line"/>
      <point x="405" y="704" type="line"/>
    </contour>
  </outline>
</glyph>
<glyph name="c" format="1">
  <advance width="547"/>
  <unicode hex="0063"/>
  <outline>
    <contour>
      <point x="45" y="125"/>
      <point x="150" y="-10"/>
      <point x="295" y="-10" type="curve" smooth="yes"/>
      <point x="371" y="-10"/>
      <point x="470" y="32"/>
      <point x="497" y="113" type="curve"/>
      <point x="477" y="119" type="line"/>
      <point x="460" y="53"/>
      <point x="360" y="10"/>
      <point x="295" y="10" type="curve" smooth="yes"/>
      <point x="167" y="10"/>
      <point x="65" y="128"/>
      <point x="65" y="258" type="curve" smooth="yes"/>
      <point x="65" y="376"/>
      <point x="146" y="507"/>
      <point x="286" y="507" type="curve" smooth="yes"/>
      <point x="364" y="507"/>
      <point x="431" y="476"/>
      <point x="470" y="404" type="curve"/>
      <point x="489" y="411" type="line"/>
      <point x="455" y="479"/>
      <point x="396" y="527"/>
      <point x="286" y="527" type="curve" smooth="yes"/>
      <point x="144" y="527"/>
      <point x="45" y="397"/>
      <point x="45" y="258" type="curve" smooth="yes"/>
    </contour>
  </outline>
</glyph>
<glyph name="d" format="1">
  <advance width="578"/>
  <unicode hex="0064"/>
  <outline>
    <contour>
      <point x="506" y="20" type="line"/>
      <point x="496" y="20"/>
      <point x="491" y="28"/>
      <point x="490" y="40" type="curve"/>
      <point x="490" y="730" type="line"/>
      <point x="470" y="730" type="line"/>
      <point x="470" y="398" type="line"/>
      <point x="422" y="467"/>
      <point x="353" y="527"/>
      <point x="258" y="527" type="curve" smooth="yes"/>
      <point x="119" y="527"/>
      <point x="17" y="401"/>
      <point x="17" y="258" type="curve" smooth="yes"/>
      <point x="17" y="125"/>
      <point x="122" y="-10"/>
      <point x="267" y="-10" type="curve" smooth="yes"/>
      <point x="346" y="-10"/>
      <point x="426" y="39"/>
      <point x="470" y="108" type="curve"/>
      <point x="470" y="40" type="line" smooth="yes"/>
      <point x="470" y="20"/>
      <point x="483" y="1"/>
      <point x="506" y="0" type="curve"/>
    </contour>
    <contour>
      <point x="470" y="169" type="line" smooth="yes"/>
      <point x="468" y="84"/>
      <point x="348" y="10"/>
      <point x="267" y="10" type="curve" smooth="yes"/>
      <point x="139" y="10"/>
      <point x="37" y="128"/>
      <point x="37" y="258" type="curve" smooth="yes"/>
      <point x="37" y="382"/>
      <point x="123" y="507"/>
      <point x="258" y="507" type="curve" smooth="yes"/>
      <point x="342" y="507"/>
      <point x="442" y="439"/>
      <point x="470" y="356" type="curve"/>
    </contour>
  </outline>
</glyph>
<glyph name="m" format="1">
  <advance width="906"/>
  <unicode hex="006D"/>
  <outline>
    <contour>
      <point x="826" y="394"/>
      <point x="810" y="527"/>
      <point x="665" y="527" type="curve" smooth="yes"/>
      <point x="570" y="527"/>
      <point x="504" y="464"/>
      <point x="459" y="376" type="curve"/>
      <point x="451" y="456"/>
      <point x="399" y="527"/>
      <point x="302" y="527" type="curve" smooth="yes"/>
      <point x="217" y="527"/>
      <point x="144" y="473"/>
      <point x="100" y="385" type="curve"/>
      <point x="100" y="519" type="line"/>
      <point x="80" y="519" type="line"/>
      <point x="80" y="0" type="line"/>
      <point x="100" y="0" type="line"/>
      <point x="100" y="328" type="line"/>
      <point x="124" y="418"/>
      <point x="197" y="507"/>
      <point x="302" y="507" type="curve" smooth="yes"/>
      <point x="416" y="507"/>
      <point x="443" y="418"/>
      <point x="443" y="289" type="curve" smooth="yes"/>
      <point x="443" y="0" type="line"/>
      <point x="463" y="0" type="line"/>
      <point x="463" y="327" type="line"/>
      <point x="465" y="331"/>
      <point x="475" y="378"/>
      <point x="507" y="422" type="curve" smooth="yes"/>
      <point x="544" y="472"/>
      <point x="598" y="507"/>
      <point x="665" y="507" type="curve" smooth="yes"/>
      <point x="789" y="507"/>
      <point x="806" y="397"/>
      <point x="806" y="289" type="curve" smooth="yes"/>
      <point x="806" y="0" type="line"/>
      <point x="826" y="0" type="line"/>
      <point x="826" y="289" type="line" smooth="yes"/>
    </contour>
  </outline>
</glyph>
<glyph name="p" format="1">
  <advance width="568"/>
  <unicode hex="0070"/>
  <outline>
    <contour>
      <point x="553" y="391"/>
      <point x="449" y="527"/>
      <point x="303" y="527" type="curve" smooth="yes"/>
      <point x="224" y="527"/>
      <point x="144" y="478"/>
      <point x="100" y="409" type="curve"/>
      <point x="100" y="519" type="line"/>
      <point x="80" y="519" type="line"/>
      <point x="80" y="-213" type="line"/>
      <point x="100" y="-213" type="line"/>
      <point x="100" y="119" type="line"/>
      <point x="145" y="49"/>
      <point x="220" y="-10"/>
      <point x="312" y="-10" type="curve" smooth="yes"/>
      <point x="457" y="-10"/>
      <point x="544" y="116"/>
      <point x="553" y="258" type="curve"/>
    </contour>
    <contour>
      <point x="531" y="135"/>
      <point x="447" y="10"/>
      <point x="312" y="10" type="curve" smooth="yes"/>
      <point x="220" y="10"/>
      <point x="137" y="77"/>
      <point x="100" y="161" type="curve"/>
      <point x="100" y="348" type="line" smooth="yes"/>
      <point x="100" y="431"/>
      <point x="223" y="507"/>
      <point x="303" y="507" type="curve" smooth="yes"/>
      <point x="431" y="507"/>
      <point x="533" y="388"/>
      <point x="533" y="258" type="curve" smooth="yes"/>
    </contour>
  </outline>
</glyph>
<glyph name="s" format="1">
  <advance width="496"/>
  <unicode hex="0073"/>
  <outline>
    <contour>
      <point x="100" y="27"/>
      <point x="166" y="-10"/>
      <point x="252" y="-10" type="curve" smooth="yes"/>
      <point x="337" y="-10"/>
      <point x="448" y="27"/>
      <point x="448" y="132" type="curve" smooth="yes"/>
      <point x="448" y="237"/>
      <point x="342" y="268"/>
      <point x="248" y="268" type="curve" smooth="yes"/>
      <point x="170" y="268"/>
      <point x="82" y="293"/>
      <point x="82" y="389" type="curve" smooth="yes"/>
      <point x="82" y="475"/>
      <point x="168" y="507"/>
      <point x="246" y="507" type="curve" smooth="yes"/>
      <point x="297" y="507"/>
      <point x="367" y="496"/>
      <point x="393" y="444" type="curve"/>
      <point x="411" y="452" type="line"/>
      <point x="378" y="500"/>
      <point x="334" y="527"/>
      <point x="246" y="527" type="curve" smooth="yes"/>
      <point x="162" y="527"/>
      <point x="62" y="490"/>
      <point x="62" y="389" type="curve" smooth="yes"/>
      <point x="62" y="284"/>
      <point x="149" y="248"/>
      <point x="248" y="248" type="curve" smooth="yes"/>
      <point x="323" y="248"/>
      <point x="428" y="229"/>
      <point x="428" y="132" type="curve" smooth="yes"/>
      <point x="428" y="43"/>
      <point x="331" y="10"/>
      <point x="252" y="10" type="curve" smooth="yes"/>
      <point x="186" y="10"/>
      <point x="124" y="35"/>
      <point x="70" y="85" type="curve"/>
      <point x="55" y="72" type="line"/>
    </contour>
  </outline>
</glyph>
<glyph name="section" format="1">
  <advance width="474"/>
  <unicode hex="00A7"/>
  <outline>
    <contour>
      <point x="404" y="203"/>
      <point x="418" y="242"/>
      <point x="418" y="280" type="curve" smooth="yes"/>
      <point x="418" y="385"/>
      <point x="322" y="426"/>
      <point x="228" y="426" type="curve" smooth="yes"/>
      <point x="131" y="426"/>
      <point x="62" y="461"/>
      <point x="62" y="557" type="curve" smooth="yes"/>
      <point x="62" y="643"/>
      <point x="148" y="695"/>
      <point x="226" y="695" type="curve" smooth="yes"/>
      <point x="277" y="695"/>
      <point x="347" y="684"/>
      <point x="373" y="632" type="curve"/>
      <point x="391" y="640" type="line"/>
      <point x="358" y="688"/>
      <point x="314" y="715"/>
      <point x="226" y="715" type="curve" smooth="yes"/>
      <point x="142" y="715"/>
      <point x="42" y="658"/>
      <point x="42" y="557" type="curve" smooth="yes"/>
      <point x="42" y="503"/>
      <point x="65" y="457"/>
      <point x="101" y="435" type="curve"/>
      <point x="82" y="414"/>
      <point x="69" y="376"/>
      <point x="69" y="341" type="curve" smooth="yes"/>
      <point x="69" y="236"/>
      <point x="156" y="193"/>
      <point x="255" y="190" type="curve" smooth="yes"/>
      <point x="331" y="188"/>
      <point x="415" y="171"/>
      <point x="415" y="74" type="curve" smooth="yes"/>
      <point x="415" y="-15"/>
      <point x="328" y="-68"/>
      <point x="249" y="-68" type="curve" smooth="yes"/>
      <point x="183" y="-68"/>
      <point x="131" y="-43"/>
      <point x="77" y="7" type="curve"/>
      <point x="62" y="-6" type="line"/>
      <point x="107" y="-51"/>
      <point x="163" y="-88"/>
      <point x="249" y="-88" type="curve" smooth="yes"/>
      <point x="334" y="-88"/>
      <point x="435" y="-31"/>
      <point x="435" y="74" type="curve" smooth="yes"/>
      <point x="435" y="125"/>
      <point x="419" y="160"/>
      <point x="381" y="181" type="curve"/>
    </contour>
    <contour>
      <point x="89" y="373"/>
      <point x="101" y="407"/>
      <point x="120" y="425" type="curve"/>
      <point x="151" y="412"/>
      <point x="189" y="406"/>
      <point x="228" y="406" type="curve" smooth="yes"/>
      <point x="303" y="406"/>
      <point x="398" y="377"/>
      <point x="398" y="280" type="curve" smooth="yes"/>
      <point x="398" y="245"/>
      <point x="384" y="209"/>
      <point x="361" y="190" type="curve"/>
      <point x="276" y="224"/>
      <point x="89" y="181"/>
      <point x="89" y="341" type="curve" smooth="yes"/>
    </contour>
  </outline>
</glyph>
<glyph name="copyright" format="1">
  <advance width="834"/>
  <unicode hex="00A9"/>
  <outline>
    <contour>
      <point x="537" y="181"/>
      <point x="483" y="147"/>
      <point x="420" y="147" type="curve" smooth="yes"/>
      <point x="335" y="147"/>
      <point x="225" y="221"/>
      <point x="225" y="357" type="curve" smooth="yes"/>
      <point x="225" y="452"/>
      <point x="287" y="566"/>
      <point x="412" y="566" type="curve" smooth="yes"/>
      <point x="526" y="566"/>
      <point x="558" y="497"/>
      <point x="565" y="484" type="curve"/>
      <point x="566" y="481"/>
      <point x="567" y="481"/>
      <point x="567" y="480" type="curve"/>
      <point x="586" y="487" type="line"/>
      <point x="584" y="489"/>
      <point x="551" y="586"/>
      <point x="412" y="586" type="curve" smooth="yes"/>
      <point x="272" y="586"/>
      <point x="208" y="461"/>
      <point x="205" y="357" type="curve" smooth="yes"/>
      <point x="205" y="210"/>
      <point x="323" y="127"/>
      <point x="420" y="127" type="curve" smooth="yes"/>
      <point x="519" y="127"/>
      <point x="585" y="197"/>
      <point x="596" y="233" type="curve"/>
      <point x="577" y="238" type="line"/>
      <point x="575" y="232"/>
      <point x="570" y="223"/>
      <point x="562" y="213" type="curve" smooth="yes"/>
    </contour>
    <contour>
      <point x="210" y="715"/>
      <point x="56" y="561"/>
      <point x="56" y="355" type="curve" smooth="yes"/>
      <point x="56" y="148"/>
      <point x="210" y="-7"/>
      <point x="417" y="-7" type="curve" smooth="yes"/>
      <point x="624" y="-7"/>
      <point x="778" y="148"/>
      <point x="778" y="355" type="curve" smooth="yes"/>
      <point x="778" y="561"/>
      <point x="624" y="715"/>
      <point x="417" y="715" type="curve" smooth="yes"/>
    </contour>
    <contour>
      <point x="221" y="13"/>
      <point x="76" y="159"/>
      <point x="76" y="355" type="curve" smooth="yes"/>
      <point x="76" y="549"/>
      <point x="222" y="695"/>
      <point x="417" y="695" type="curve" smooth="yes"/>
      <point x="613" y="695"/>
      <point x="758" y="549"/>
      <point x="758" y="355" type="curve" smooth="yes"/>
      <point x="758" y="149"/>
      <point x="609" y="13"/>
      <point x="417" y="13" type="curve" smooth="yes"/>
    </contour>
  </outline>
</glyph>
<glyph name="paragraph" format="1">
  <advance width="552"/>
  <unicode hex="00B6"/>
  <outline>
    <contour>
      <point x="22" y="335"/>
      <point x="129" y="251"/>
      <point x="304" y="248" type="curve"/>
      <point x="304" y="-80" type="line"/>
      <point x="324" y="-80" type="line"/>
      <point x="324" y="248" type="line"/>
      <point x="415" y="248" type="line"/>
      <point x="415" y="-80" type="line"/>
      <point x="435" y="-80" type="line"/>
      <point x="435" y="690" type="line"/>
      <point x="505" y="690" type="line"/>
      <point x="505" y="710" type="line"/>
      <point x="304" y="710" type="line" smooth="yes"/>
      <point x="127" y="706"/>
      <point x="22" y="622"/>
      <point x="22" y="479" type="curve" smooth="yes"/>
    </contour>
    <contour>
      <point x="49" y="414"/>
      <point x="42" y="444"/>
      <point x="42" y="479" type="curve" smooth="yes"/>
      <point x="42" y="612"/>
      <point x="137" y="684"/>
      <point x="304" y="690" type="curve"/>
      <point x="304" y="268" type="line"/>
      <point x="181" y="271"/>
      <point x="95" y="314"/>
      <point x="61" y="388" type="curve" smooth="yes"/>
    </contour>
    <contour>
      <point x="415" y="268" type="line"/>
      <point x="324" y="268" type="line"/>
      <point x="324" y="690" type="line"/>
      <point x="415" y="690" type="line"/>
    </contour>
  </outline>
</glyph>
<glyph name="guillemotright" format="1">
  <advance width="501"/>
  <unicode hex="00BB"/>
  <outline>
    <contour>
      <point x="480" y="268" type="line"/>
      <point x="243" y="437" type="line"/>
      <point x="243" y="415" type="line"/>
      <point x="461" y="259" type="line"/>
      <point x="243" y="102" type="line"/>
      <point x="243" y="80" type="line"/>
      <point x="480" y="250" type="line"/>
    </contour>
    <contour>
      <point x="310" y="268" type="line"/>
      <point x="73" y="437" type="line"/>
      <point x="73" y="415" type="line"/>
      <point x="291" y="259" type="line"/>
      <point x="73" y="102" type="line"/>
      <point x="73" y="80" type="line"/>
      <point x="310" y="250" type="line"/>
    </contour>
  </outline>
</glyph>
<glyph name="Atilde" format="1">
  <advance width="653"/>
  <unicode hex="00C3"/>
  <outline>
    <contour>
      <point x="47" y="0" type="line"/>
      <point x="158" y="254" type="line"/>
      <point x="529" y="254" type="line"/>
      <point x="640" y="0" type="line"/>
      <point x="662" y="0" type="line"/>
      <point x="353" y="710" type="line"/>
      <point x="335" y="710" type="line"/>
      <point x="25" y="0" type="line"/>
    </contour>
    <contour>
      <point x="520" y="274" type="line"/>
      <point x="166" y="274" type="line"/>
      <point x="344" y="681" type="line"/>
    </contour>
    <contour>
      <point x="492" y="792"/>
      <point x="495" y="865"/>
      <point x="495" y="865" type="curve"/>
      <point x="475" y="866" type="line"/>
      <point x="475" y="861"/>
      <point x="472" y="812"/>
      <point x="427" y="812" type="curve" smooth="yes"/>
      <point x="372" y="812"/>
      <point x="348" y="873"/>
      <point x="299" y="873" type="curve" smooth="yes"/>
      <point x="234" y="873"/>
      <point x="232" y="796"/>
      <point x="232" y="793" type="curve" smooth="yes"/>
      <point x="232" y="792" type="line"/>
      <point x="252" y="793" type="line"/>
      <point x="252" y="795"/>
      <point x="253" y="853"/>
      <point x="299" y="853" type="curve" smooth="yes"/>
      <point x="336" y="853"/>
      <point x="361" y="792"/>
      <point x="427" y="792" type="curve" smooth="yes"/>
    </contour>
  </outline>
</glyph>
<glyph name="Adieresis" format="1">
  <advance width="653"/>
  <unicode hex="00C4"/>
  <outline>
    <contour>
      <point x="47" y="0" type="line"/>
      <point x="158" y="254" type="line"/>
      <point x="529" y="254" type="line"/>
      <point x="640" y="0" type="line"/>
      <point x="662" y="0" type="line"/>
      <point x="353" y="710" type="line"/>
      <point x="335" y="710" type="line"/>
      <point x="25" y="0" type="line"/>
    </contour>
    <contour>
      <point x="520" y="274" type="line"/>
      <point x="166" y="274" type="line"/>
      <point x="344" y="681" type="line"/>
    </contour>
    <contour>
      <point x="299" y="802" type="line"/>
      <point x="299" y="885" type="line"/>
      <point x="279" y="885" type="line"/>
      <point x="279" y="802" type="line"/>
    </contour>
    <contour>
      <point x="455" y="802" type="line"/>
      <point x="455" y="885" type="line"/>
      <point x="435" y="885" type="line"/>
      <point x="435" y="802" type="line"/>
    </contour>
  </outline>
</glyph>
<glyph name="AE" format="1">
  <advance width="1161"/>
  <unicode hex="00C6"/>
  <outline>
    <contour>
      <point x="47" y="0" type="line"/>
      <point x="158" y="254" type="line"/>
      <point x="529" y="254" type="line"/>
      <point x="640" y="0" type="line"/>
      <point x="662" y="0" type="line"/>
      <point x="353" y="710" type="line"/>
      <point x="335" y="710" type="line"/>
      <point x="25" y="0" type="line"/>
    </contour>
    <contour>
      <point x="520" y="274" type="line"/>
      <point x="166" y="274" type="line"/>
      <point x="344" y="681" type="line"/>
    </contour>
    <contour>
      <point x="748" y="20" type="line"/>
      <point x="748" y="353" type="line"/>
      <point x="1131" y="353" type="line"/>
      <point x="1131" y="373" type="line"/>
      <point x="748" y="373" type="line"/>
      <point x="748" y="690" type="line"/>
      <point x="1185" y="690" type="line"/>
      <point x="1185" y="710" type="line"/>
      <point x="728" y="710" type="line"/>
      <point x="728" y="0" type="line"/>
      <point x="1194" y="0" type="line"/>
      <point x="1194" y="20" type="line"/>
    </contour>
  </outline>
</glyph>
<glyph name="Icircumflex" format="1">
  <advance width="94"/>
  <unicode hex="00CE"/>
  <outline>
    <contour>
      <point x="96" y="0" type="line"/>
      <point x="96" y="709" type="line"/>
      <point x="76" y="709" type="line"/>
      <point x="76" y="0" type="line"/>
    </contour>
    <contour>
      <point x="-16" y="778" type="line"/>
      <point x="69" y="895" type="line"/>
      <point x="154" y="778" type="line"/>
      <point x="170" y="790" type="line"/>
      <point x="77" y="918" type="line"/>
      <point x="61" y="918" type="line"/>
      <point x="-32" y="790" type="line"/>
    </contour>
  </outline>
</glyph>
<glyph name="Ucircumflex" format="1">
  <advance width="649"/>
  <unicode hex="00DB"/>
  <outline>
    <contour>
      <point x="149" y="5"/>
      <point x="89" y="173"/>
      <point x="89" y="345" type="curve" smooth="yes"/>
      <point x="89" y="710" type="line"/>
      <point x="69" y="710" type="line"/>
      <point x="69" y="345" type="line" smooth="yes"/>
      <point x="69" y="167"/>
      <point x="135" y="-15"/>
      <point x="360" y="-15" type="curve" smooth="yes"/>
      <point x="578" y="-15"/>
      <point x="650" y="157"/>
      <point x="650" y="345" type="curve" smooth="yes"/>
      <point x="650" y="710" type="line"/>
      <point x="630" y="710" type="line"/>
      <point x="630" y="345" type="line" smooth="yes"/>
      <point x="630" y="180"/>
      <point x="573" y="5"/>
      <point x="360" y="5" type="curve" smooth="yes"/>
    </contour>
    <contour>
      <point x="261" y="778" type="line"/>
      <point x="346" y="895" type="line"/>
      <point x="431" y="778" type="line"/>
      <point x="447" y="790" type="line"/>
      <point x="354" y="918" type="line"/>
      <point x="338" y="918" type="line"/>
      <point x="245" y="790" type="line"/>
    </contour>
  </outline>
</glyph>
<glyph name="Yacute" format="1">
  <advance width="605"/>
  <unicode hex="00DD"/>
  <outline>
    <contour>
      <point x="21" y="710" type="line"/>
      <point x="308" y="277" type="line"/>
      <point x="308" y="0" type="line"/>
      <point x="328" y="0" type="line"/>
      <point x="328" y="275" type="line"/>
      <point x="616" y="710" type="line"/>
      <point x="593" y="710" type="line"/>
      <point x="318" y="298" type="line"/>
      <point x="44" y="710" type="line"/>
    </contour>
    <contour>
      <point x="367" y="895" type="line"/>
      <point x="333" y="895" type="line"/>
      <point x="269" y="802" type="line"/>
      <point x="285" y="790" type="line"/>
    </contour>
  </outline>
</glyph>
<glyph name="aring" format="1">
  <advance width="474"/>
  <unicode hex="00E5"/>
  <outline>
    <contour>
      <point x="464" y="20" type="line"/>
      <point x="453" y="20"/>
      <point x="450" y="28"/>
      <point x="448" y="40" type="curve"/>
      <point x="448" y="327" type="line" smooth="yes"/>
      <point x="448" y="439"/>
      <point x="383" y="527"/>
      <point x="258" y="527" type="curve" smooth="yes"/>
      <point x="194" y="527"/>
      <point x="132" y="496"/>
      <point x="78" y="459" type="curve"/>
      <point x="90" y="443" type="line"/>
      <point x="148" y="484"/>
      <point x="208" y="507"/>
      <point x="258" y="507" type="curve" smooth="yes"/>
      <point x="361" y="507"/>
      <point x="428" y="433"/>
      <point x="428" y="327" type="curve" smooth="yes"/>
      <point x="428" y="268" type="line"/>
      <point x="401" y="278"/>
      <point x="339" y="297"/>
      <point x="254" y="297" type="curve" smooth="yes"/>
      <point x="164" y="297"/>
      <point x="40" y="261"/>
      <point x="40" y="149" type="curve" smooth="yes"/>
      <point x="40" y="60"/>
      <point x="114" y="-10"/>
      <point x="208" y="-10" type="curve" smooth="yes"/>
      <point x="289" y="-10"/>
      <point x="375" y="20"/>
      <point x="428" y="88" type="curve"/>
      <point x="428" y="40" type="line" smooth="yes"/>
      <point x="428" y="19"/>
      <point x="441" y="1"/>
      <point x="464" y="0" type="curve"/>
    </contour>
    <contour>
      <point x="372" y="38"/>
      <point x="284" y="10"/>
      <point x="208" y="10" type="curve" smooth="yes"/>
      <point x="131" y="10"/>
      <point x="60" y="65"/>
      <point x="60" y="149" type="curve" smooth="yes"/>
      <point x="60" y="246"/>
      <point x="169" y="277"/>
      <point x="254" y="277" type="curve" smooth="yes"/>
      <point x="312" y="277"/>
      <point x="371" y="268"/>
      <point x="428" y="246" type="curve"/>
      <point x="428" y="143" type="line" smooth="yes"/>
      <point x="428" y="131"/>
      <point x="423" y="117"/>
      <point x="413" y="102" type="curve" smooth="yes"/>
    </contour>
    <contour>
      <point x="198" y="617"/>
      <point x="229" y="586"/>
      <point x="267" y="586" type="curve" smooth="yes"/>
      <point x="305" y="586"/>
      <point x="336" y="617"/>
      <point x="336" y="655" type="curve" smooth="yes"/>
      <point x="336" y="693"/>
      <point x="305" y="724"/>
      <point x="267" y="724" type="curve" smooth="yes"/>
      <point x="229" y="724"/>
      <point x="198" y="693"/>
      <point x="198" y="655" type="curve" smooth="yes"/>
    </contour>
    <contour>
      <point x="241" y="699"/>
      <point x="253" y="704"/>
      <point x="267" y="704" type="curve" smooth="yes"/>
      <point x="280" y="704"/>
      <point x="293" y="699"/>
      <point x="302" y="690" type="curve"/>
      <point x="310" y="681"/>
      <point x="316" y="669"/>
      <point x="316" y="655" type="curve" smooth="yes"/>
      <point x="316" y="642"/>
      <point x="310" y="629"/>
      <point x="302" y="621" type="curve" smooth="yes"/>
      <point x="293" y="612"/>
      <point x="280" y="606"/>
      <point x="267" y="606" type="curve" smooth="yes"/>
      <point x="253" y="606"/>
      <point x="241" y="612"/>
      <point x="232" y="621" type="curve"/>
      <point x="223" y="629"/>
      <point x="218" y="642"/>
      <point x="218" y="655" type="curve" smooth="yes"/>
      <point x="218" y="669"/>
      <point x="223" y="681"/>
      <point x="232" y="690" type="curve" smooth="yes"/>
    </contour>
  </outline>
</glyph>
<glyph name="ccedilla" format="1">
  <advance width="493"/>
  <unicode hex="00E7"/>
  <outline>
    <contour>
      <point x="53" y="125"/>
      <point x="158" y="-10"/>
      <point x="303" y="-10" type="curve" smooth="yes"/>
      <point x="379" y="-10"/>
      <point x="478" y="32"/>
      <point x="505" y="113" type="curve"/>
      <point x="485" y="119" type="line"/>
      <point x="468" y="53"/>
      <point x="368" y="10"/>
      <point x="303" y="10" type="curve" smooth="yes"/>
      <point x="175" y="10"/>
      <point x="73" y="128"/>
      <point x="73" y="258" type="curve" smooth="yes"/>
      <point x="73" y="376"/>
      <point x="154" y="507"/>
      <point x="294" y="507" type="curve" smooth="yes"/>
      <point x="372" y="507"/>
      <point x="439" y="476"/>
      <point x="478" y="404" type="curve"/>
      <point x="497" y="411" type="line"/>
      <point x="463" y="479"/>
      <point x="404" y="527"/>
      <point x="294" y="527" type="curve" smooth="yes"/>
      <point x="152" y="527"/>
      <point x="53" y="397"/>
      <point x="53" y="258" type="curve" smooth="yes"/>
    </contour>
    <contour>
      <point x="303" y="-165" type="line"/>
      <point x="325" y="-165"/>
      <point x="349" y="-150"/>
      <point x="359" y="-129" type="curve" smooth="yes"/>
      <point x="368" y="-110"/>
      <point x="365" y="-86"/>
      <point x="352" y="-67" type="curve"/>
      <point x="341" y="-54"/>
      <point x="327" y="-49"/>
      <point x="307" y="-48" type="curve"/>
      <point x="289" y="-48"/>
      <point x="271" y="-52"/>
      <point x="257" y="-56" type="curve"/>
      <point x="283" y="-8" type="line"/>
      <point x="261" y="-8" type="line"/>
      <point x="212" y="-95" type="line"/>
      <point x="245" y="-82"/>
      <point x="243" y="-82"/>
      <point x="264" y="-75" type="curve" smooth="yes"/>
      <point x="277" y="-71"/>
      <point x="293" y="-68"/>
      <point x="307" y="-68" type="curve" smooth="yes"/>
      <point x="321" y="-68"/>
      <point x="333" y="-72"/>
      <point x="340" y="-85" type="curve"/>
      <point x="346" y="-95"/>
      <point x="346" y="-108"/>
      <point x="342" y="-120" type="curve"/>
      <point x="334" y="-134"/>
      <point x="320" y="-143"/>
      <point x="303" y="-145" type="curve"/>
    </contour>
  </outline>
</glyph>
<glyph name="udieresis" format="1">
  <advance width="500"/>
  <unicode hex="00FC"/>
  <outline>
    <contour>
      <point x="503" y="20" type="line"/>
      <point x="493" y="20"/>
      <point x="488" y="28"/>
      <point x="487" y="40" type="curve"/>
      <point x="487" y="519" type="line"/>
      <point x="467" y="519" type="line"/>
      <point x="467" y="189" type="line"/>
      <point x="441" y="97"/>
      <point x="350" y="10"/>
      <point x="244" y="10" type="curve" smooth="yes"/>
      <point x="120" y="10"/>
      <point x="94" y="111"/>
      <point x="94" y="228" type="curve" smooth="yes"/>
      <point x="94" y="519" type="line"/>
      <point x="74" y="519" type="line"/>
      <point x="74" y="228" type="line" smooth="yes"/>
      <point x="74" y="113"/>
      <point x="99" y="-10"/>
      <point x="244" y="-10" type="curve" smooth="yes"/>
      <point x="335" y="-10"/>
      <point x="424" y="48"/>
      <point x="467" y="132" type="curve"/>
      <point x="467" y="40" type="line" smooth="yes"/>
      <point x="467" y="20"/>
      <point x="480" y="1"/>
      <point x="503" y="0" type="curve"/>
    </contour>
    <contour>
      <point x="223" y="611" type="line"/>
      <point x="223" y="694" type="line"/>
      <point x="203" y="694" type="line"/>
      <point x="203" y="611" type="line"/>
    </contour>
    <contour>
      <point x="379" y="611" type="line"/>
      <point x="379" y="694" type="line"/>
      <point x="359" y="694" type="line"/>
      <point x="359" y="611" type="line"/>
    </contour>
  </outline>
</glyph>
<glyph name="yacute" format="1">
  <advance width="504"/>
  <unicode hex="00FD"/>
  <outline>
    <contour>
      <point x="504" y="519" type="line"/>
      <point x="287" y="25" type="line"/>
      <point x="58" y="519" type="line"/>
      <point x="36" y="519" type="line"/>
      <point x="277" y="0" type="line"/>
      <point x="198" y="-180"/>
      <point x="195" y="-186"/>
      <point x="190" y="-192" type="curve"/>
      <point x="183" y="-199"/>
      <point x="175" y="-203"/>
      <point x="143" y="-203" type="curve"/>
      <point x="143" y="-223" type="line"/>
      <point x="180" y="-223"/>
      <point x="200" y="-215"/>
      <point x="210" y="-198" type="curve" smooth="yes"/>
      <point x="217" y="-186" type="line"/>
      <point x="526" y="519" type="line"/>
    </contour>
    <contour>
      <point x="317" y="704" type="line"/>
      <point x="283" y="704" type="line"/>
      <point x="219" y="611" type="line"/>
      <point x="235" y="599" type="line"/>
    </contour>
  </outline>
</glyph>
<glyph name="dotlessi" format="1">
  <advance width="168"/>
  <unicode hex="0131"/>
  <outline>
    <contour>
      <point x="101" y="0" type="line"/>
      <point x="101" y="517" type="line"/>
      <point x="81" y="517" type="line"/>
      <point x="81" y="0" type="line"/>
    </contour>
  </outline>
</glyph>
<glyph name="OE" format="1">
  <advance width="1188"/>
  <unicode hex="0152"/>
  <outline>
    <contour>
      <point x="726" y="20" type="line"/>
      <point x="726" y="353" type="line"/>
      <point x="1109" y="353" type="line"/>
      <point x="1109" y="373" type="line"/>
      <point x="726" y="373" type="line"/>
      <point x="726" y="690" type="line"/>
      <point x="1163" y="690" type="line"/>
      <point x="1163" y="710" type="line"/>
      <point x="706" y="710" type="line"/>
      <point x="706" y="475" type="line"/>
      <point x="662" y="606"/>
      <point x="547" y="715"/>
      <point x="396" y="715" type="curve" smooth="yes"/>
      <point x="209" y="715"/>
      <point x="65" y="544"/>
      <point x="65" y="355" type="curve" smooth="yes"/>
      <point x="65" y="173"/>
      <point x="200" y="1"/>
      <point x="396" y="-5" type="curve"/>
      <point x="541" y="-3"/>
      <point x="660" y="99"/>
      <point x="706" y="234" type="curve"/>
      <point x="706" y="0" type="line"/>
      <point x="1172" y="0" type="line"/>
      <point x="1172" y="20" type="line"/>
    </contour>
    <contour>
      <point x="216" y="15"/>
      <point x="90" y="178"/>
      <point x="85" y="355" type="curve"/>
      <point x="85" y="523"/>
      <point x="211" y="695"/>
      <point x="396" y="695" type="curve" smooth="yes"/>
      <point x="572" y="695"/>
      <point x="706" y="532"/>
      <point x="706" y="356" type="curve" smooth="yes"/>
      <point x="706" y="354" type="line" smooth="yes"/>
      <point x="706" y="187"/>
      <point x="581" y="15"/>
      <point x="396" y="15" type="curve" smooth="yes"/>
    </contour>
  </outline>
</glyph>
<glyph name="caron" format="1">
  <advance width="266"/>
  <unicode hex="02C7"/>
  <outline>
    <contour>
      <point x="32" y="715" type="line"/>
      <point x="125" y="587" type="line"/>
      <point x="141" y="587" type="line"/>
      <point x="234" y="715" type="line"/>
      <point x="218" y="727" type="line"/>
      <point x="133" y="610" type="line"/>
      <point x="48" y="727" type="line"/>
    </contour>
  </outline>
</glyph>
<glyph name="tilde" format="1">
  <advance width="393"/>
  <unicode hex="02DC"/>
  <outline>
    <contour>
      <point x="329" y="601"/>
      <point x="332" y="674"/>
      <point x="332" y="674" type="curve"/>
      <point x="312" y="675" type="line"/>
      <point x="312" y="670"/>
      <point x="309" y="621"/>
      <point x="264" y="621" type="curve" smooth="yes"/>
      <point x="209" y="621"/>
      <point x="185" y="682"/>
      <point x="136" y="682" type="curve" smooth="yes"/>
      <point x="71" y="682"/>
      <point x="69" y="605"/>
      <point x="69" y="602" type="curve" smooth="yes"/>
      <point x="69" y="601" type="line"/>
      <point x="89" y="602" type="line"/>
      <point x="89" y="604"/>
      <point x="90" y="662"/>
      <point x="136" y="662" type="curve" smooth="yes"/>
      <point x="173" y="662"/>
      <point x="198" y="601"/>
      <point x="264" y="601" type="curve" smooth="yes"/>
    </contour>
  </outline>
</glyph>
<glyph name="guilsinglleft" format="1">
  <advance width="302"/>
  <unicode hex="2039"/>
  <outline>
    <contour>
      <point x="2" y="250" type="line"/>
      <point x="239" y="80" type="line"/>
      <point x="239" y="102" type="line"/>
      <point x="21" y="259" type="line"/>
      <point x="239" y="415" type="line"/>
      <point x="239" y="437" type="line"/>
      <point x="2" y="268" type="line"/>
    </contour>
  </outline>
</glyph>
<glyph name="minus" format="1">
  <advance width="833"/>
  <unicode hex="2212"/>
  <outline>
    <contour>
      <point x="484" y="261" type="line"/>
      <point x="484" y="281" type="line"/>
      <point x="81" y="281" type="line"/>
      <point x="81" y="261" type="line"/>
    </contour>
  </outline>
</glyph>
<glyph name="A.sc" format="1">
  <advance width="527"/>
  <outline>
    <contour>
      <point x="128" y="179" type="line"/>
      <point x="399" y="179" type="line"/>
      <point x="476" y="0" type="line"/>
      <point x="499" y="0" type="line"/>
      <point x="273" y="519" type="line"/>
      <point x="254" y="519" type="line"/>
      <point x="28" y="0" type="line"/>
      <point x="51" y="0" type="line"/>
    </contour>
    <contour>
      <point x="390" y="199" type="line"/>
      <point x="137" y="199" type="line"/>
      <point x="264" y="490" type="line"/>
    </contour>
  </outline>
</glyph>
<glyph name="D.sc" format="1">
  <advance width="542"/>
  <outline>
    <contour>
      <point x="81" y="519" type="line"/>
      <point x="81" y="0" type="line"/>
      <point x="246" y="0" type="line" smooth="yes"/>
      <point x="394" y="0"/>
      <point x="486" y="92"/>
      <point x="486" y="260" type="curve" smooth="yes"/>
      <point x="486" y="418"/>
      <point x="405" y="519"/>
      <point x="246" y="519" type="curve" smooth="yes"/>
    </contour>
    <contour>
      <point x="369" y="41"/>
      <point x="313" y="20"/>
      <point x="246" y="20" type="curve" smooth="yes"/>
      <point x="101" y="20" type="line"/>
      <point x="101" y="499" type="line"/>
      <point x="246" y="499" type="line" smooth="yes"/>
      <point x="382" y="499"/>
      <point x="466" y="419"/>
      <point x="466" y="260" type="curve" smooth="yes"/>
      <point x="466" y="180"/>
      <point x="445" y="120"/>
      <point x="407" y="81" type="curve" smooth="yes"/>
    </contour>
  </outline>
</glyph>
<glyph name="F.sc" format="1">
  <advance width="418"/>
  <outline>
    <contour>
      <point x="101" y="0" type="line"/>
      <point x="101" y="257" type="line"/>
      <point x="364" y="257" type="line"/>
      <point x="364" y="277" type="line"/>
      <point x="101" y="277" type="line"/>
      <point x="101" y="498" type="line"/>
      <point x="418" y="498" type="line"/>
      <point x="418" y="518" type="line"/>
      <point x="81" y="518" type="line"/>
      <point x="81" y="0" type="line"/>
    </contour>
  </outline>
</glyph>
<glyph name="P.sc" format="1">
  <advance width="463"/>
  <outline>
    <contour>
      <point x="81" y="519" type="line"/>
      <point x="81" y="0" type="line"/>
      <point x="101" y="0" type="line"/>
      <point x="101" y="186" type="line"/>
      <point x="262" y="186" type="line" smooth="yes"/>
      <point x="390" y="186"/>
      <point x="451" y="240"/>
      <point x="451" y="353" type="curve" smooth="yes"/>
      <point x="451" y="463"/>
      <point x="393" y="519"/>
      <point x="262" y="519" type="curve" smooth="yes"/>
    </contour>
    <contour>
      <point x="431" y="252"/>
      <point x="381" y="206"/>
      <point x="262" y="206" type="curve" smooth="yes"/>
      <point x="101" y="206" type="line"/>
      <point x="101" y="499" type="line"/>
      <point x="262" y="499" type="line" smooth="yes"/>
      <point x="386" y="499"/>
      <point x="431" y="449"/>
      <point x="431" y="353" type="curve" smooth="yes"/>
    </contour>
  </outline>
</glyph>
<glyph name="Q.sc" format="1">
  <advance width="608"/>
  <outline>
    <contour>
      <point x="549" y="387"/>
      <point x="451" y="527"/>
      <point x="302" y="527" type="curve" smooth="yes"/>
      <point x="166" y="527"/>
      <point x="55" y="403"/>
      <point x="55" y="258" type="curve" smooth="yes"/>
      <point x="55" y="123"/>
      <point x="156" y="-7"/>
      <point x="302" y="-10" type="curve"/>
      <point x="363" y="-9"/>
      <point x="418" y="16"/>
      <point x="461" y="55" type="curve"/>
      <point x="504" y="0" type="line"/>
      <point x="529" y="0" type="line"/>
      <point x="475" y="69" type="line"/>
      <point x="521" y="118"/>
      <point x="549" y="185"/>
      <point x="549" y="258" type="curve" smooth="yes"/>
    </contour>
    <contour>
      <point x="170" y="10"/>
      <point x="80" y="129"/>
      <point x="75" y="258" type="curve"/>
      <point x="75" y="376"/>
      <point x="165" y="507"/>
      <point x="302" y="507" type="curve" smooth="yes"/>
      <point x="430" y="507"/>
      <point x="529" y="387"/>
      <point x="529" y="258" type="curve" smooth="yes"/>
      <point x="529" y="197"/>
      <point x="505" y="132"/>
      <point x="462" y="84" type="curve"/>
      <point x="424" y="132" type="line"/>
      <point x="399" y="132" type="line"/>
      <point x="449" y="70" type="line"/>
      <point x="411" y="34"/>
      <point x="361" y="10"/>
      <point x="302" y="10" type="curve" smooth="yes"/>
    </contour>
  </outline>
</glyph>
<glyph name="T.sc" format="1">
  <advance width="421"/>
  <outline>
    <contour>
      <point x="416" y="519" type="line"/>
      <point x="6" y="519" type="line"/>
      <point x="6" y="499" type="line"/>
      <point x="201" y="499" type="line"/>
      <point x="201" y="0" type="line"/>
      <point x="221" y="0" type="line"/>
      <point x="221" y="499" type="line"/>
      <point x="416" y="499" type="line"/>
    </contour>
  </outline>
</glyph>
<glyph name="ct" format="1">
  <advance width="813"/>
  <outline>
    <contour>
      <point x="783" y="40" type="line"/>
      <point x="781" y="39"/>
      <point x="745" y="15"/>
      <point x="699" y="15" type="curve" smooth="yes"/>
      <point x="664" y="15"/>
      <point x="632" y="36"/>
      <point x="629" y="75" type="curve"/>
      <point x="629" y="499" type="line"/>
      <point x="754" y="499" type="line"/>
      <point x="754" y="519" type="line"/>
      <point x="629" y="519" type="line"/>
      <point x="629" y="536" type="line" smooth="yes"/>
      <point x="629" y="553"/>
      <point x="630" y="571"/>
      <point x="630" y="590" type="curve" smooth="yes"/>
      <point x="630" y="668"/>
      <point x="617" y="753"/>
      <point x="486" y="753" type="curve" smooth="yes"/>
      <point x="402" y="753"/>
      <point x="356" y="692"/>
      <point x="356" y="620" type="curve" smooth="yes"/>
      <point x="356" y="563"/>
      <point x="387" y="516"/>
      <point x="411" y="481" type="curve"/>
      <point x="376" y="510"/>
      <point x="328" y="527"/>
      <point x="262" y="527" type="curve" smooth="yes"/>
      <point x="120" y="527"/>
      <point x="21" y="397"/>
      <point x="21" y="258" type="curve" smooth="yes"/>
      <point x="21" y="125"/>
      <point x="126" y="-10"/>
      <point x="271" y="-10" type="curve" smooth="yes"/>
      <point x="347" y="-10"/>
      <point x="446" y="32"/>
      <point x="473" y="113" type="curve"/>
      <point x="453" y="119" type="line"/>
      <point x="436" y="53"/>
      <point x="336" y="10"/>
      <point x="271" y="10" type="curve" smooth="yes"/>
      <point x="143" y="10"/>
      <point x="41" y="128"/>
      <point x="41" y="258" type="curve" smooth="yes"/>
      <point x="41" y="376"/>
      <point x="122" y="507"/>
      <point x="262" y="507" type="curve" smooth="yes"/>
      <point x="340" y="507"/>
      <point x="407" y="476"/>
      <point x="446" y="404" type="curve"/>
      <point x="465" y="411" type="line"/>
      <point x="450" y="445"/>
      <point x="376" y="548"/>
      <point x="376" y="620" type="curve" smooth="yes"/>
      <point x="376" y="681"/>
      <point x="412" y="733"/>
      <point x="486" y="733" type="curve" smooth="yes"/>
      <point x="599" y="733"/>
      <point x="609" y="668"/>
      <point x="609" y="587" type="curve" smooth="yes"/>
      <point x="609" y="570"/>
      <point x="609" y="551"/>
      <point x="609" y="533" type="curve" smooth="yes"/>
      <point x="609" y="519" type="line"/>
      <point x="534" y="519" type="line"/>
      <point x="534" y="499" type="line"/>
      <point x="609" y="499" type="line"/>
      <point x="609" y="75" type="line" smooth="yes"/>
      <point x="609" y="27"/>
      <point x="651" y="-5"/>
      <point x="699" y="-5" type="curve" smooth="yes"/>
      <point x="754" y="-5"/>
      <point x="793" y="23"/>
      <point x="794" y="24" type="curve"/>
    </contour>
  </outline>
</glyph>
<glyph name="eight.alt" format="1">
  <advance width="583"/>
  <outline>
    <contour>
      <point x="529" y="283"/>
      <point x="455" y="355"/>
      <point x="364" y="381" type="curve"/>
      <point x="432" y="403"/>
      <point x="503" y="458"/>
      <point x="503" y="540" type="curve" smooth="yes"/>
      <point x="503" y="646"/>
      <point x="390" y="710"/>
      <point x="291" y="710" type="curve" smooth="yes"/>
      <point x="198" y="710"/>
      <point x="80" y="650"/>
      <point x="80" y="540" type="curve" smooth="yes"/>
      <point x="80" y="463"/>
      <point x="144" y="407"/>
      <point x="218" y="381" type="curve"/>
      <point x="137" y="359"/>
      <point x="54" y="289"/>
      <point x="54" y="190" type="curve" smooth="yes"/>
      <point x="54" y="70"/>
      <point x="175" y="-10"/>
      <point x="291" y="-10" type="curve" smooth="yes"/>
      <point x="307" y="-10" type="line"/>
      <point x="414" y="-3"/>
      <point x="520" y="67"/>
      <point x="529" y="190" type="curve"/>
    </contour>
    <contour>
      <point x="509" y="80"/>
      <point x="396" y="10"/>
      <point x="291" y="10" type="curve" smooth="yes"/>
      <point x="193" y="10"/>
      <point x="74" y="75"/>
      <point x="74" y="190" type="curve" smooth="yes"/>
      <point x="74" y="299"/>
      <point x="186" y="371"/>
      <point x="291" y="371" type="curve" smooth="yes"/>
      <point x="390" y="371"/>
      <point x="509" y="305"/>
      <point x="509" y="190" type="curve" smooth="yes"/>
    </contour>
    <contour>
      <point x="100" y="634"/>
      <point x="203" y="690"/>
      <point x="291" y="690" type="curve" smooth="yes"/>
      <point x="373" y="690"/>
      <point x="483" y="638"/>
      <point x="483" y="540" type="curve" smooth="yes"/>
      <point x="483" y="446"/>
      <point x="378" y="391"/>
      <point x="291" y="391" type="curve" smooth="yes"/>
      <point x="205" y="391"/>
      <point x="106" y="442"/>
      <point x="100" y="540" type="curve"/>
    </contour>
  </outline>
</glyph>
<glyph name="ffl" format="1">
  <advance width="760"/>
  <outline>
    <contour>
      <point x="730" y="23" type="line"/>
      <point x="729" y="23"/>
      <point x="696" y="14"/>
      <point x="669" y="14" type="curve" smooth="yes"/>
      <point x="630" y="14"/>
      <point x="609" y="48"/>
      <point x="609" y="77" type="curve" smooth="yes"/>
      <point x="609" y="614" type="line" smooth="yes"/>
      <point x="609" y="684"/>
      <point x="557" y="740"/>
      <point x="465" y="740" type="curve" smooth="yes"/>
      <point x="407" y="740"/>
      <point x="368" y="715"/>
      <point x="344" y="675" type="curve"/>
      <point x="330" y="685"/>
      <point x="305" y="700"/>
      <point x="253" y="700" type="curve" smooth="yes"/>
      <point x="152" y="700"/>
      <point x="101" y="619"/>
      <point x="101" y="520" type="curve" smooth="yes"/>
      <point x="101" y="458" type="line"/>
      <point x="26" y="458" type="line"/>
      <point x="26" y="438" type="line"/>
      <point x="101" y="438" type="line"/>
      <point x="101" y="0" type="line"/>
      <point x="121" y="0" type="line"/>
      <point x="121" y="438" type="line"/>
      <point x="313" y="438" type="line"/>
      <point x="313" y="0" type="line"/>
      <point x="333" y="0" type="line"/>
      <point x="333" y="438" type="line"/>
      <point x="458" y="438" type="line"/>
      <point x="458" y="458" type="line"/>
      <point x="333" y="458" type="line"/>
      <point x="333" y="540" type="line" smooth="yes"/>
      <point x="333" y="625"/>
      <point x="370" y="720"/>
      <point x="465" y="720" type="curve" smooth="yes"/>
      <point x="554" y="720"/>
      <point x="589" y="666"/>
      <point x="589" y="613" type="curve" smooth="yes"/>
      <point x="589" y="77" type="line" smooth="yes"/>
      <point x="589" y="33"/>
      <point x="618" y="-5"/>
      <point x="668" y="-5" type="curve" smooth="yes"/>
      <point x="703" y="-5"/>
      <point x="738" y="3"/>
      <point x="739" y="4" type="curve"/>
    </contour>
    <contour>
      <point x="313" y="458" type="line"/>
      <point x="121" y="458" type="line"/>
      <point x="121" y="520" type="line" smooth="yes"/>
      <point x="121" y="595"/>
      <point x="158" y="680"/>
      <point x="253" y="680" type="curve" smooth="yes"/>
      <point x="281" y="680"/>
      <point x="311" y="676"/>
      <point x="334" y="657" type="curve"/>
      <point x="319" y="624"/>
      <point x="313" y="583"/>
      <point x="313" y="540" type="curve" smooth="yes"/>
    </contour>
  </outline>
</glyph>
<glyph name="seven.alt" format="1">
  <advance width="471"/>
  <outline>
    <contour>
      <point x="76" y="0" type="line"/>
      <point x="99" y="0" type="line"/>
      <point x="463" y="710" type="line"/>
      <point x="3" y="710" type="line"/>
      <point x="3" y="690" type="line"/>
      <point x="430" y="690" type="line"/>
    </contour>
  </outline>
</glyph>
<glyph name="six.alt" format="1">
  <advance width="604"/>
  <outline>
    <contour>
      <point x="551" y="361"/>
      <point x="447" y="475"/>
      <point x="309" y="475" type="curve" smooth="yes"/>
      <point x="209" y="475"/>
      <point x="118" y="413"/>
      <point x="80" y="318" type="curve"/>
      <point x="80" y="446"/>
      <point x="119" y="695"/>
      <point x="302" y="695" type="curve" smooth="yes"/>
      <point x="309" y="695" type="line" smooth="yes"/>
      <point x="392" y="695"/>
      <point x="468" y="645"/>
      <point x="496" y="560" type="curve"/>
      <point x="515" y="567" type="line"/>
      <point x="487" y="654"/>
      <point x="406" y="715"/>
      <point x="309" y="715" type="curve" smooth="yes"/>
      <point x="302" y="715" type="line" smooth="yes"/>
      <point x="110" y="715"/>
      <point x="60" y="473"/>
      <point x="60" y="317" type="curve" smooth="yes"/>
      <point x="60" y="258"/>
      <point x="65" y="216"/>
      <point x="65" y="213" type="curve"/>
      <point x="75" y="95"/>
      <point x="178" y="-10"/>
      <point x="309" y="-10" type="curve" smooth="yes"/>
      <point x="325" y="-10" type="line"/>
      <point x="450" y="-2"/>
      <point x="546" y="98"/>
      <point x="554" y="232" type="curve"/>
    </contour>
    <contour>
      <point x="192" y="10"/>
      <point x="84" y="107"/>
      <point x="84" y="232" type="curve" smooth="yes"/>
      <point x="84" y="351"/>
      <point x="184" y="455"/>
      <point x="309" y="455" type="curve" smooth="yes"/>
      <point x="427" y="455"/>
      <point x="534" y="358"/>
      <point x="534" y="232" type="curve" smooth="yes"/>
      <point x="534" y="110"/>
      <point x="433" y="15"/>
      <point x="309" y="10" type="curve"/>
    </contour>
  </outline>
</glyph>
<glyph name="t.alt" format="1">
  <advance width="233"/>
  <outline>
    <contour>
      <point x="108" y="0" type="line"/>
      <point x="108" y="499" type="line"/>
      <point x="233" y="499" type="line"/>
      <point x="233" y="519" type="line"/>
      <point x="108" y="519" type="line"/>
      <point x="108" y="732" type="line"/>
      <point x="88" y="732" type="line"/>
      <point x="88" y="519" type="line"/>
      <point x="13" y="519" type="line"/>
      <point x="13" y="499" type="line"/>
      <point x="88" y="499" type="line"/>
      <point x="88" y="0" type="line"/>
    </contour>
  </outline>
</glyph>
<glyph name="two.alt" format="1">
  <advance width="530"/>
  <outline>
    <contour>
      <point x="515" y="0" type="line"/>
      <point x="515" y="20" type="line"/>
      <point x="80" y="20" type="line"/>
      <point x="79" y="25"/>
      <point x="79" y="31"/>
      <point x="79" y="39" type="curve" smooth="yes"/>
      <point x="79" y="98"/>
      <point x="106" y="229"/>
      <point x="271" y="301" type="curve" smooth="yes"/>
      <point x="365" y="342"/>
      <point x="514" y="369"/>
      <point x="514" y="525" type="curve" smooth="yes"/>
      <point x="514" y="620"/>
      <point x="447" y="719"/>
      <point x="300" y="719" type="curve" smooth="yes"/>
      <point x="148" y="719"/>
      <point x="71" y="597"/>
      <point x="71" y="593" type="curve"/>
      <point x="88" y="583" type="line"/>
      <point x="92" y="587"/>
      <point x="159" y="699"/>
      <point x="296" y="699" type="curve" smooth="yes"/>
      <point x="438" y="699"/>
      <point x="494" y="609"/>
      <point x="494" y="525" type="curve" smooth="yes"/>
      <point x="494" y="383"/>
      <point x="357" y="359"/>
      <point x="263" y="319" type="curve" smooth="yes"/>
      <point x="90" y="245"/>
      <point x="59" y="103"/>
      <point x="59" y="39" type="curve" smooth="yes"/>
      <point x="59" y="20"/>
      <point x="61" y="9"/>
      <point x="61" y="9" type="curve"/>
      <point x="62" y="0" type="line"/>
    </contour>
    <contour>
      <point x="88" y="583"/>
      <point x="88" y="583"/>
      <point x="88" y="583" type="curve" smooth="yes"/>
    </contour>
  </outline>
</glyph>
